# xmcd
#
# Track frame offsets: 
#        150
#        11150
#        30425
#        47537
#        63210
#        75040
#        91847
#        103732
#        116995
#        130615
#        146162
#        159030
#        176150
#        190645
#        204897
#        222452
#        237575
#        252637
#
# Disc length: 3577 seconds
#
# Revision: 7
# Processed by: cddbd v1.5.2PL0 Copyright (c) Steve Scherf et al.
# Submitted via: ExactAudioCopy v0.95b4
#
DISCID=ed0df712
DTITLE=Lucinda Williams - Lucinda Williams
DYEAR=1988
DGENRE=Country
TTITLE0=I Just Wanted To See You So Bad
TTITLE1=The Night's Too Long
TTITLE2=Abandoned
TTITLE3=Big Red Sun Blues
TTITLE4=Like A Rose
TTITLE5=Changed The Locks
TTITLE6=Passionate Kisses
TTITLE7=Am I Too Blue
TTITLE8=Crescent City
TTITLE9=Side Of The Road
TTITLE10=Price To Pay
TTITLE11=I Asked For Water (He Gave Me Gasoline)
TTITLE12=Nothing In Rambling (Live)
TTITLE13=Disgusted (Live)
TTITLE14=Side Of The Road (Live)
TTITLE15=Goin' Back Home
TTITLE16=Something About What Happens When We Talk (Live)
TTITLE17=Sundays (Live)
EXTD=YEAR: 1988
EXTT0=
EXTT1=
EXTT2=
EXTT3=
EXTT4=
EXTT5=
EXTT6=
EXTT7=
EXTT8=
EXTT9=
EXTT10=
EXTT11=
EXTT12=
EXTT13=
EXTT14=
EXTT15=
EXTT16=
EXTT17=
PLAYORDER=
